<mxfile host="app.diagrams.net" agent="Mozilla/5.0 (Windows NT 10.0; Win64; x64; rv:144.0) Gecko/20100101 Firefox/144.0" version="28.2.7">
  <diagram id="QjY9rzH4A-ni7vyDi41a" name="Sapper">
    <mxGraphModel dx="1253" dy="993" grid="1" gridSize="10" guides="1" tooltips="1" connect="1" arrows="1" fold="1" page="1" pageScale="1" pageWidth="827" pageHeight="1169" background="#ffffff" math="0" shadow="0">
      <root>
        <mxCell id="0" />
        <mxCell id="1" parent="0" />
        <mxCell id="asdCnAw3iJqueyx5lAn3-5" value="Game" style="swimlane;fontStyle=1;align=center;verticalAlign=top;childLayout=stackLayout;horizontal=1;startSize=26;horizontalStack=0;resizeParent=1;resizeParentMax=0;resizeLast=0;collapsible=1;marginBottom=0;whiteSpace=wrap;html=1;fillColor=#f8cecc;strokeColor=#b85450;" vertex="1" parent="1">
          <mxGeometry x="30" y="320" width="160" height="94" as="geometry" />
        </mxCell>
        <mxCell id="asdCnAw3iJqueyx5lAn3-6" value="- controller: GameController&lt;br&gt;- board: Board" style="text;strokeColor=none;fillColor=none;align=left;verticalAlign=top;spacingLeft=4;spacingRight=4;overflow=hidden;rotatable=0;points=[[0,0.5],[1,0.5]];portConstraint=eastwest;whiteSpace=wrap;html=1;" vertex="1" parent="asdCnAw3iJqueyx5lAn3-5">
          <mxGeometry y="26" width="160" height="34" as="geometry" />
        </mxCell>
        <mxCell id="asdCnAw3iJqueyx5lAn3-7" value="" style="line;strokeWidth=1;fillColor=none;align=left;verticalAlign=middle;spacingTop=-1;spacingLeft=3;spacingRight=3;rotatable=0;labelPosition=right;points=[];portConstraint=eastwest;strokeColor=inherit;" vertex="1" parent="asdCnAw3iJqueyx5lAn3-5">
          <mxGeometry y="60" width="160" height="8" as="geometry" />
        </mxCell>
        <mxCell id="asdCnAw3iJqueyx5lAn3-8" value="+ main(): void&lt;div&gt;&lt;br/&gt;&lt;/div&gt;" style="text;strokeColor=none;fillColor=none;align=left;verticalAlign=top;spacingLeft=4;spacingRight=4;overflow=hidden;rotatable=0;points=[[0,0.5],[1,0.5]];portConstraint=eastwest;whiteSpace=wrap;html=1;" vertex="1" parent="asdCnAw3iJqueyx5lAn3-5">
          <mxGeometry y="68" width="160" height="26" as="geometry" />
        </mxCell>
        <mxCell id="asdCnAw3iJqueyx5lAn3-9" value="GameController" style="swimlane;fontStyle=1;align=center;verticalAlign=top;childLayout=stackLayout;horizontal=1;startSize=26;horizontalStack=0;resizeParent=1;resizeParentMax=0;resizeLast=0;collapsible=1;marginBottom=0;whiteSpace=wrap;html=1;fillColor=#e1d5e7;strokeColor=#9673a6;" vertex="1" parent="1">
          <mxGeometry x="320" y="350" width="180" height="140" as="geometry">
            <mxRectangle x="320" y="350" width="130" height="30" as="alternateBounds" />
          </mxGeometry>
        </mxCell>
        <mxCell id="asdCnAw3iJqueyx5lAn3-10" value="- board: Board&lt;br&gt;- isGameOver: boolean" style="text;strokeColor=none;fillColor=none;align=left;verticalAlign=top;spacingLeft=4;spacingRight=4;overflow=hidden;rotatable=0;points=[[0,0.5],[1,0.5]];portConstraint=eastwest;whiteSpace=wrap;html=1;" vertex="1" parent="asdCnAw3iJqueyx5lAn3-9">
          <mxGeometry y="26" width="180" height="34" as="geometry" />
        </mxCell>
        <mxCell id="asdCnAw3iJqueyx5lAn3-11" value="" style="line;strokeWidth=1;fillColor=none;align=left;verticalAlign=middle;spacingTop=-1;spacingLeft=3;spacingRight=3;rotatable=0;labelPosition=right;points=[];portConstraint=eastwest;strokeColor=inherit;" vertex="1" parent="asdCnAw3iJqueyx5lAn3-9">
          <mxGeometry y="60" width="180" height="8" as="geometry" />
        </mxCell>
        <mxCell id="asdCnAw3iJqueyx5lAn3-12" value="+ startGame(): void&lt;br&gt;+ revealCell(x: int, y: int): void&lt;br&gt;+ toggleFlag(x: int, y: int): void&lt;br&gt;+ checkVictory(): boolean" style="text;strokeColor=none;fillColor=none;align=left;verticalAlign=top;spacingLeft=4;spacingRight=4;overflow=hidden;rotatable=0;points=[[0,0.5],[1,0.5]];portConstraint=eastwest;whiteSpace=wrap;html=1;" vertex="1" parent="asdCnAw3iJqueyx5lAn3-9">
          <mxGeometry y="68" width="180" height="72" as="geometry" />
        </mxCell>
        <mxCell id="asdCnAw3iJqueyx5lAn3-13" value="Board" style="swimlane;fontStyle=1;align=center;verticalAlign=top;childLayout=stackLayout;horizontal=1;startSize=26;horizontalStack=0;resizeParent=1;resizeParentMax=0;resizeLast=0;collapsible=1;marginBottom=0;whiteSpace=wrap;html=1;fillColor=#dae8fc;strokeColor=#6c8ebf;" vertex="1" parent="1">
          <mxGeometry x="60" y="530" width="220" height="150" as="geometry">
            <mxRectangle x="60" y="530" width="70" height="30" as="alternateBounds" />
          </mxGeometry>
        </mxCell>
        <mxCell id="asdCnAw3iJqueyx5lAn3-14" value="- width: int&lt;br&gt;- height: int&lt;br&gt;- cells: Cell[][]" style="text;strokeColor=none;fillColor=none;align=left;verticalAlign=top;spacingLeft=4;spacingRight=4;overflow=hidden;rotatable=0;points=[[0,0.5],[1,0.5]];portConstraint=eastwest;whiteSpace=wrap;html=1;" vertex="1" parent="asdCnAw3iJqueyx5lAn3-13">
          <mxGeometry y="26" width="220" height="54" as="geometry" />
        </mxCell>
        <mxCell id="asdCnAw3iJqueyx5lAn3-15" value="" style="line;strokeWidth=1;fillColor=none;align=left;verticalAlign=middle;spacingTop=-1;spacingLeft=3;spacingRight=3;rotatable=0;labelPosition=right;points=[];portConstraint=eastwest;strokeColor=inherit;" vertex="1" parent="asdCnAw3iJqueyx5lAn3-13">
          <mxGeometry y="80" width="220" height="8" as="geometry" />
        </mxCell>
        <mxCell id="asdCnAw3iJqueyx5lAn3-16" value="+ initialize(): void&lt;br&gt;+ getCell(x: int, y: int): Cell&lt;br&gt;+ countAdjacentMines(x: int, y: int): int" style="text;strokeColor=none;fillColor=none;align=left;verticalAlign=top;spacingLeft=4;spacingRight=4;overflow=hidden;rotatable=0;points=[[0,0.5],[1,0.5]];portConstraint=eastwest;whiteSpace=wrap;html=1;" vertex="1" parent="asdCnAw3iJqueyx5lAn3-13">
          <mxGeometry y="88" width="220" height="62" as="geometry" />
        </mxCell>
        <mxCell id="KeaEY-KgxzFfwsy9Wn_8-1" value="Cell" style="swimlane;fontStyle=1;align=center;verticalAlign=top;childLayout=stackLayout;horizontal=1;startSize=26;horizontalStack=0;resizeParent=1;resizeParentMax=0;resizeLast=0;collapsible=1;marginBottom=0;whiteSpace=wrap;html=1;fillColor=#fff2cc;strokeColor=#d6b656;" vertex="1" parent="1">
          <mxGeometry x="310" y="820" width="200" height="140" as="geometry">
            <mxRectangle x="310" y="820" width="60" height="30" as="alternateBounds" />
          </mxGeometry>
        </mxCell>
        <mxCell id="KeaEY-KgxzFfwsy9Wn_8-2" value="- x: int&lt;br&gt;- y: int&lt;br&gt;- isRevealed: boolean&lt;br&gt;- isFlagged: boolean" style="text;strokeColor=none;fillColor=none;align=left;verticalAlign=top;spacingLeft=4;spacingRight=4;overflow=hidden;rotatable=0;points=[[0,0.5],[1,0.5]];portConstraint=eastwest;whiteSpace=wrap;html=1;" vertex="1" parent="KeaEY-KgxzFfwsy9Wn_8-1">
          <mxGeometry y="26" width="200" height="64" as="geometry" />
        </mxCell>
        <mxCell id="KeaEY-KgxzFfwsy9Wn_8-3" value="" style="line;strokeWidth=1;fillColor=none;align=left;verticalAlign=middle;spacingTop=-1;spacingLeft=3;spacingRight=3;rotatable=0;labelPosition=right;points=[];portConstraint=eastwest;strokeColor=inherit;" vertex="1" parent="KeaEY-KgxzFfwsy9Wn_8-1">
          <mxGeometry y="90" width="200" height="8" as="geometry" />
        </mxCell>
        <mxCell id="KeaEY-KgxzFfwsy9Wn_8-4" value="+ reveal(): void&lt;br&gt;+ toggleFlag(): void" style="text;strokeColor=none;fillColor=none;align=left;verticalAlign=top;spacingLeft=4;spacingRight=4;overflow=hidden;rotatable=0;points=[[0,0.5],[1,0.5]];portConstraint=eastwest;whiteSpace=wrap;html=1;" vertex="1" parent="KeaEY-KgxzFfwsy9Wn_8-1">
          <mxGeometry y="98" width="200" height="42" as="geometry" />
        </mxCell>
        <mxCell id="KeaEY-KgxzFfwsy9Wn_8-5" value="MineCell" style="swimlane;fontStyle=1;align=center;verticalAlign=top;childLayout=stackLayout;horizontal=1;startSize=26;horizontalStack=0;resizeParent=1;resizeParentMax=0;resizeLast=0;collapsible=1;marginBottom=0;whiteSpace=wrap;html=1;fillColor=#fff2cc;strokeColor=#d6b656;" vertex="1" parent="1">
          <mxGeometry x="90" y="1000" width="160" height="60" as="geometry">
            <mxRectangle x="90" y="1000" width="90" height="30" as="alternateBounds" />
          </mxGeometry>
        </mxCell>
        <mxCell id="KeaEY-KgxzFfwsy9Wn_8-7" value="" style="line;strokeWidth=1;fillColor=none;align=left;verticalAlign=middle;spacingTop=-1;spacingLeft=3;spacingRight=3;rotatable=0;labelPosition=right;points=[];portConstraint=eastwest;strokeColor=inherit;" vertex="1" parent="KeaEY-KgxzFfwsy9Wn_8-5">
          <mxGeometry y="26" width="160" height="8" as="geometry" />
        </mxCell>
        <mxCell id="KeaEY-KgxzFfwsy9Wn_8-8" value="+ explode(): void" style="text;strokeColor=none;fillColor=none;align=left;verticalAlign=top;spacingLeft=4;spacingRight=4;overflow=hidden;rotatable=0;points=[[0,0.5],[1,0.5]];portConstraint=eastwest;whiteSpace=wrap;html=1;" vertex="1" parent="KeaEY-KgxzFfwsy9Wn_8-5">
          <mxGeometry y="34" width="160" height="26" as="geometry" />
        </mxCell>
        <mxCell id="KeaEY-KgxzFfwsy9Wn_8-9" value="NumberCell" style="swimlane;fontStyle=1;align=center;verticalAlign=top;childLayout=stackLayout;horizontal=1;startSize=26;horizontalStack=0;resizeParent=1;resizeParentMax=0;resizeLast=0;collapsible=1;marginBottom=0;whiteSpace=wrap;html=1;fillColor=#fff2cc;strokeColor=#d6b656;" vertex="1" parent="1">
          <mxGeometry x="334" y="1040" width="160" height="60" as="geometry" />
        </mxCell>
        <mxCell id="KeaEY-KgxzFfwsy9Wn_8-11" value="" style="line;strokeWidth=1;fillColor=none;align=left;verticalAlign=middle;spacingTop=-1;spacingLeft=3;spacingRight=3;rotatable=0;labelPosition=right;points=[];portConstraint=eastwest;strokeColor=inherit;" vertex="1" parent="KeaEY-KgxzFfwsy9Wn_8-9">
          <mxGeometry y="26" width="160" height="8" as="geometry" />
        </mxCell>
        <mxCell id="KeaEY-KgxzFfwsy9Wn_8-12" value="- adjacentMines: int" style="text;strokeColor=none;fillColor=none;align=left;verticalAlign=top;spacingLeft=4;spacingRight=4;overflow=hidden;rotatable=0;points=[[0,0.5],[1,0.5]];portConstraint=eastwest;whiteSpace=wrap;html=1;" vertex="1" parent="KeaEY-KgxzFfwsy9Wn_8-9">
          <mxGeometry y="34" width="160" height="26" as="geometry" />
        </mxCell>
        <mxCell id="KeaEY-KgxzFfwsy9Wn_8-13" value="EmptyCell" style="swimlane;fontStyle=1;align=center;verticalAlign=top;childLayout=stackLayout;horizontal=1;startSize=26;horizontalStack=0;resizeParent=1;resizeParentMax=0;resizeLast=0;collapsible=1;marginBottom=0;whiteSpace=wrap;html=1;fillColor=#fff2cc;strokeColor=#d6b656;" vertex="1" parent="1">
          <mxGeometry x="600" y="1000" width="160" height="60" as="geometry" />
        </mxCell>
        <mxCell id="KeaEY-KgxzFfwsy9Wn_8-15" value="" style="line;strokeWidth=1;fillColor=none;align=left;verticalAlign=middle;spacingTop=-1;spacingLeft=3;spacingRight=3;rotatable=0;labelPosition=right;points=[];portConstraint=eastwest;strokeColor=inherit;" vertex="1" parent="KeaEY-KgxzFfwsy9Wn_8-13">
          <mxGeometry y="26" width="160" height="8" as="geometry" />
        </mxCell>
        <mxCell id="KeaEY-KgxzFfwsy9Wn_8-16" value="+ revealAdjacent(): void" style="text;strokeColor=none;fillColor=none;align=left;verticalAlign=top;spacingLeft=4;spacingRight=4;overflow=hidden;rotatable=0;points=[[0,0.5],[1,0.5]];portConstraint=eastwest;whiteSpace=wrap;html=1;" vertex="1" parent="KeaEY-KgxzFfwsy9Wn_8-13">
          <mxGeometry y="34" width="160" height="26" as="geometry" />
        </mxCell>
        <mxCell id="YknYfnQOU2gpnMPJucMA-1" value="GameConfig" style="swimlane;fontStyle=1;align=center;verticalAlign=top;childLayout=stackLayout;horizontal=1;startSize=26;horizontalStack=0;resizeParent=1;resizeParentMax=0;resizeLast=0;collapsible=1;marginBottom=0;whiteSpace=wrap;html=1;fillColor=#e1d5e7;strokeColor=#9673a6;" vertex="1" parent="1">
          <mxGeometry x="595" y="290" width="160" height="90" as="geometry" />
        </mxCell>
        <mxCell id="YknYfnQOU2gpnMPJucMA-3" value="" style="line;strokeWidth=1;fillColor=none;align=left;verticalAlign=middle;spacingTop=-1;spacingLeft=3;spacingRight=3;rotatable=0;labelPosition=right;points=[];portConstraint=eastwest;strokeColor=inherit;" vertex="1" parent="YknYfnQOU2gpnMPJucMA-1">
          <mxGeometry y="26" width="160" height="8" as="geometry" />
        </mxCell>
        <mxCell id="YknYfnQOU2gpnMPJucMA-4" value="+ width: int&lt;br&gt;+ height: int&lt;br&gt;+ mineCount: int" style="text;strokeColor=none;fillColor=none;align=left;verticalAlign=top;spacingLeft=4;spacingRight=4;overflow=hidden;rotatable=0;points=[[0,0.5],[1,0.5]];portConstraint=eastwest;whiteSpace=wrap;html=1;" vertex="1" parent="YknYfnQOU2gpnMPJucMA-1">
          <mxGeometry y="34" width="160" height="56" as="geometry" />
        </mxCell>
        <mxCell id="YknYfnQOU2gpnMPJucMA-5" value="ScoreManager" style="swimlane;fontStyle=1;align=center;verticalAlign=top;childLayout=stackLayout;horizontal=1;startSize=26;horizontalStack=0;resizeParent=1;resizeParentMax=0;resizeLast=0;collapsible=1;marginBottom=0;whiteSpace=wrap;html=1;fillColor=#dae8fc;strokeColor=#6c8ebf;" vertex="1" parent="1">
          <mxGeometry x="560" y="554" width="250" height="86" as="geometry" />
        </mxCell>
        <mxCell id="YknYfnQOU2gpnMPJucMA-6" value="- score: int" style="text;strokeColor=none;fillColor=none;align=left;verticalAlign=top;spacingLeft=4;spacingRight=4;overflow=hidden;rotatable=0;points=[[0,0.5],[1,0.5]];portConstraint=eastwest;whiteSpace=wrap;html=1;" vertex="1" parent="YknYfnQOU2gpnMPJucMA-5">
          <mxGeometry y="26" width="250" height="26" as="geometry" />
        </mxCell>
        <mxCell id="YknYfnQOU2gpnMPJucMA-7" value="" style="line;strokeWidth=1;fillColor=none;align=left;verticalAlign=middle;spacingTop=-1;spacingLeft=3;spacingRight=3;rotatable=0;labelPosition=right;points=[];portConstraint=eastwest;strokeColor=inherit;" vertex="1" parent="YknYfnQOU2gpnMPJucMA-5">
          <mxGeometry y="52" width="250" height="8" as="geometry" />
        </mxCell>
        <mxCell id="YknYfnQOU2gpnMPJucMA-8" value="+ calculateScore(time: long, flags: int): int" style="text;strokeColor=none;fillColor=none;align=left;verticalAlign=top;spacingLeft=4;spacingRight=4;overflow=hidden;rotatable=0;points=[[0,0.5],[1,0.5]];portConstraint=eastwest;whiteSpace=wrap;html=1;" vertex="1" parent="YknYfnQOU2gpnMPJucMA-5">
          <mxGeometry y="60" width="250" height="26" as="geometry" />
        </mxCell>
        <mxCell id="YknYfnQOU2gpnMPJucMA-9" value="GameTimer" style="swimlane;fontStyle=1;align=center;verticalAlign=top;childLayout=stackLayout;horizontal=1;startSize=26;horizontalStack=0;resizeParent=1;resizeParentMax=0;resizeLast=0;collapsible=1;marginBottom=0;whiteSpace=wrap;html=1;fillColor=#dae8fc;strokeColor=#6c8ebf;" vertex="1" parent="1">
          <mxGeometry x="340" y="554" width="160" height="120" as="geometry" />
        </mxCell>
        <mxCell id="YknYfnQOU2gpnMPJucMA-10" value="- startTime: long&lt;br&gt;- elapsed: long" style="text;strokeColor=none;fillColor=none;align=left;verticalAlign=top;spacingLeft=4;spacingRight=4;overflow=hidden;rotatable=0;points=[[0,0.5],[1,0.5]];portConstraint=eastwest;whiteSpace=wrap;html=1;" vertex="1" parent="YknYfnQOU2gpnMPJucMA-9">
          <mxGeometry y="26" width="160" height="34" as="geometry" />
        </mxCell>
        <mxCell id="YknYfnQOU2gpnMPJucMA-11" value="" style="line;strokeWidth=1;fillColor=none;align=left;verticalAlign=middle;spacingTop=-1;spacingLeft=3;spacingRight=3;rotatable=0;labelPosition=right;points=[];portConstraint=eastwest;strokeColor=inherit;" vertex="1" parent="YknYfnQOU2gpnMPJucMA-9">
          <mxGeometry y="60" width="160" height="8" as="geometry" />
        </mxCell>
        <mxCell id="YknYfnQOU2gpnMPJucMA-12" value="+ start(): void&lt;br&gt;+ stop(): void&lt;br&gt;+ getElapsed(): long" style="text;strokeColor=none;fillColor=none;align=left;verticalAlign=top;spacingLeft=4;spacingRight=4;overflow=hidden;rotatable=0;points=[[0,0.5],[1,0.5]];portConstraint=eastwest;whiteSpace=wrap;html=1;" vertex="1" parent="YknYfnQOU2gpnMPJucMA-9">
          <mxGeometry y="68" width="160" height="52" as="geometry" />
        </mxCell>
        <mxCell id="YknYfnQOU2gpnMPJucMA-13" value="MineGenerator" style="swimlane;fontStyle=1;align=center;verticalAlign=top;childLayout=stackLayout;horizontal=1;startSize=26;horizontalStack=0;resizeParent=1;resizeParentMax=0;resizeLast=0;collapsible=1;marginBottom=0;whiteSpace=wrap;html=1;fillColor=#dae8fc;strokeColor=#6c8ebf;" vertex="1" parent="1">
          <mxGeometry x="264" y="700" width="300" height="60" as="geometry" />
        </mxCell>
        <mxCell id="YknYfnQOU2gpnMPJucMA-15" value="" style="line;strokeWidth=1;fillColor=none;align=left;verticalAlign=middle;spacingTop=-1;spacingLeft=3;spacingRight=3;rotatable=0;labelPosition=right;points=[];portConstraint=eastwest;strokeColor=inherit;" vertex="1" parent="YknYfnQOU2gpnMPJucMA-13">
          <mxGeometry y="26" width="300" height="8" as="geometry" />
        </mxCell>
        <mxCell id="YknYfnQOU2gpnMPJucMA-16" value="+ generateMines(board: Board, mineCount: int): void" style="text;strokeColor=none;fillColor=none;align=left;verticalAlign=top;spacingLeft=4;spacingRight=4;overflow=hidden;rotatable=0;points=[[0,0.5],[1,0.5]];portConstraint=eastwest;whiteSpace=wrap;html=1;" vertex="1" parent="YknYfnQOU2gpnMPJucMA-13">
          <mxGeometry y="34" width="300" height="26" as="geometry" />
        </mxCell>
        <mxCell id="1j_1-GWrCnCKH1_u50-d-1" value="Renderer" style="swimlane;fontStyle=1;align=center;verticalAlign=top;childLayout=stackLayout;horizontal=1;startSize=26;horizontalStack=0;resizeParent=1;resizeParentMax=0;resizeLast=0;collapsible=1;marginBottom=0;whiteSpace=wrap;html=1;fillColor=#d5e8d4;strokeColor=#82b366;" vertex="1" parent="1">
          <mxGeometry x="80" y="120" width="190" height="70" as="geometry">
            <mxRectangle x="30" y="10" width="90" height="30" as="alternateBounds" />
          </mxGeometry>
        </mxCell>
        <mxCell id="1j_1-GWrCnCKH1_u50-d-3" value="" style="line;strokeWidth=1;fillColor=none;align=left;verticalAlign=middle;spacingTop=-1;spacingLeft=3;spacingRight=3;rotatable=0;labelPosition=right;points=[];portConstraint=eastwest;strokeColor=inherit;" vertex="1" parent="1j_1-GWrCnCKH1_u50-d-1">
          <mxGeometry y="26" width="190" height="8" as="geometry" />
        </mxCell>
        <mxCell id="1j_1-GWrCnCKH1_u50-d-4" value="+ drawBoard(board: Board): void&lt;br&gt;&lt;div&gt;+ drawCell(cell: Cell): void&lt;/div&gt;&lt;div&gt;&lt;br&gt;&lt;/div&gt;" style="text;strokeColor=none;fillColor=none;align=left;verticalAlign=top;spacingLeft=4;spacingRight=4;overflow=hidden;rotatable=0;points=[[0,0.5],[1,0.5]];portConstraint=eastwest;whiteSpace=wrap;html=1;" vertex="1" parent="1j_1-GWrCnCKH1_u50-d-1">
          <mxGeometry y="34" width="190" height="36" as="geometry" />
        </mxCell>
        <mxCell id="1j_1-GWrCnCKH1_u50-d-6" value="ConsoleRenderer " style="swimlane;fontStyle=1;align=center;verticalAlign=top;childLayout=stackLayout;horizontal=1;startSize=26;horizontalStack=0;resizeParent=1;resizeParentMax=0;resizeLast=0;collapsible=1;marginBottom=0;whiteSpace=wrap;html=1;fillColor=#d5e8d4;strokeColor=#82b366;" vertex="1" parent="1">
          <mxGeometry x="40" y="10" width="190" height="70" as="geometry">
            <mxRectangle x="80" y="120" width="130" height="30" as="alternateBounds" />
          </mxGeometry>
        </mxCell>
        <mxCell id="1j_1-GWrCnCKH1_u50-d-8" value="" style="line;strokeWidth=1;fillColor=none;align=left;verticalAlign=middle;spacingTop=-1;spacingLeft=3;spacingRight=3;rotatable=0;labelPosition=right;points=[];portConstraint=eastwest;strokeColor=inherit;" vertex="1" parent="1j_1-GWrCnCKH1_u50-d-6">
          <mxGeometry y="26" width="190" height="8" as="geometry" />
        </mxCell>
        <mxCell id="1j_1-GWrCnCKH1_u50-d-9" value="+ drawBoard(board: Board): void&lt;br&gt;+ drawCell(cell: Cell): void" style="text;strokeColor=none;fillColor=none;align=left;verticalAlign=top;spacingLeft=4;spacingRight=4;overflow=hidden;rotatable=0;points=[[0,0.5],[1,0.5]];portConstraint=eastwest;whiteSpace=wrap;html=1;" vertex="1" parent="1j_1-GWrCnCKH1_u50-d-6">
          <mxGeometry y="34" width="190" height="36" as="geometry" />
        </mxCell>
        <mxCell id="dICW7F_Z_B3EryI-zm27-1" value="GameUI" style="swimlane;fontStyle=1;align=center;verticalAlign=top;childLayout=stackLayout;horizontal=1;startSize=26;horizontalStack=0;resizeParent=1;resizeParentMax=0;resizeLast=0;collapsible=1;marginBottom=0;whiteSpace=wrap;html=1;fillColor=#d5e8d4;strokeColor=#82b366;" vertex="1" parent="1">
          <mxGeometry x="320" y="170" width="200" height="120" as="geometry">
            <mxRectangle x="320" y="170" width="90" height="30" as="alternateBounds" />
          </mxGeometry>
        </mxCell>
        <mxCell id="dICW7F_Z_B3EryI-zm27-2" value="- renderer: Renderer&lt;br&gt;- inputHandler: IUserInputHandler" style="text;strokeColor=none;fillColor=none;align=left;verticalAlign=top;spacingLeft=4;spacingRight=4;overflow=hidden;rotatable=0;points=[[0,0.5],[1,0.5]];portConstraint=eastwest;whiteSpace=wrap;html=1;" vertex="1" parent="dICW7F_Z_B3EryI-zm27-1">
          <mxGeometry y="26" width="200" height="44" as="geometry" />
        </mxCell>
        <mxCell id="dICW7F_Z_B3EryI-zm27-3" value="" style="line;strokeWidth=1;fillColor=none;align=left;verticalAlign=middle;spacingTop=-1;spacingLeft=3;spacingRight=3;rotatable=0;labelPosition=right;points=[];portConstraint=eastwest;strokeColor=inherit;" vertex="1" parent="dICW7F_Z_B3EryI-zm27-1">
          <mxGeometry y="70" width="200" height="8" as="geometry" />
        </mxCell>
        <mxCell id="dICW7F_Z_B3EryI-zm27-4" value="+ update(): void&lt;br&gt;+ showMessage(msg: String): void" style="text;strokeColor=none;fillColor=none;align=left;verticalAlign=top;spacingLeft=4;spacingRight=4;overflow=hidden;rotatable=0;points=[[0,0.5],[1,0.5]];portConstraint=eastwest;whiteSpace=wrap;html=1;" vertex="1" parent="dICW7F_Z_B3EryI-zm27-1">
          <mxGeometry y="78" width="200" height="42" as="geometry" />
        </mxCell>
        <mxCell id="dICW7F_Z_B3EryI-zm27-5" value="IUserInputHandler" style="swimlane;fontStyle=1;align=center;verticalAlign=top;childLayout=stackLayout;horizontal=1;startSize=26;horizontalStack=0;resizeParent=1;resizeParentMax=0;resizeLast=0;collapsible=1;marginBottom=0;whiteSpace=wrap;html=1;fillColor=#d5e8d4;strokeColor=#82b366;" vertex="1" parent="1">
          <mxGeometry x="575" y="130" width="190" height="70" as="geometry" />
        </mxCell>
        <mxCell id="dICW7F_Z_B3EryI-zm27-7" value="" style="line;strokeWidth=1;fillColor=none;align=left;verticalAlign=middle;spacingTop=-1;spacingLeft=3;spacingRight=3;rotatable=0;labelPosition=right;points=[];portConstraint=eastwest;strokeColor=inherit;" vertex="1" parent="dICW7F_Z_B3EryI-zm27-5">
          <mxGeometry y="26" width="190" height="8" as="geometry" />
        </mxCell>
        <mxCell id="dICW7F_Z_B3EryI-zm27-8" value="+ onLeftClick(x: int, y: int): void&lt;br&gt;+ onRightClick(x: int, y: int): void" style="text;strokeColor=none;fillColor=none;align=left;verticalAlign=top;spacingLeft=4;spacingRight=4;overflow=hidden;rotatable=0;points=[[0,0.5],[1,0.5]];portConstraint=eastwest;whiteSpace=wrap;html=1;" vertex="1" parent="dICW7F_Z_B3EryI-zm27-5">
          <mxGeometry y="34" width="190" height="36" as="geometry" />
        </mxCell>
        <mxCell id="dICW7F_Z_B3EryI-zm27-9" value="MouseInputHandler " style="swimlane;fontStyle=1;align=center;verticalAlign=top;childLayout=stackLayout;horizontal=1;startSize=26;horizontalStack=0;resizeParent=1;resizeParentMax=0;resizeLast=0;collapsible=1;marginBottom=0;whiteSpace=wrap;html=1;fillColor=#d5e8d4;strokeColor=#82b366;" vertex="1" parent="1">
          <mxGeometry x="620" y="10" width="190" height="100" as="geometry">
            <mxRectangle x="620" y="10" width="150" height="30" as="alternateBounds" />
          </mxGeometry>
        </mxCell>
        <mxCell id="dICW7F_Z_B3EryI-zm27-10" value="- controller: GameController" style="text;strokeColor=none;fillColor=none;align=left;verticalAlign=top;spacingLeft=4;spacingRight=4;overflow=hidden;rotatable=0;points=[[0,0.5],[1,0.5]];portConstraint=eastwest;whiteSpace=wrap;html=1;" vertex="1" parent="dICW7F_Z_B3EryI-zm27-9">
          <mxGeometry y="26" width="190" height="26" as="geometry" />
        </mxCell>
        <mxCell id="dICW7F_Z_B3EryI-zm27-11" value="" style="line;strokeWidth=1;fillColor=none;align=left;verticalAlign=middle;spacingTop=-1;spacingLeft=3;spacingRight=3;rotatable=0;labelPosition=right;points=[];portConstraint=eastwest;strokeColor=inherit;" vertex="1" parent="dICW7F_Z_B3EryI-zm27-9">
          <mxGeometry y="52" width="190" height="8" as="geometry" />
        </mxCell>
        <mxCell id="dICW7F_Z_B3EryI-zm27-12" value="+ onLeftClick(x: int, y: int): void&lt;br&gt;+ onRightClick(x: int, y: int): void" style="text;strokeColor=none;fillColor=none;align=left;verticalAlign=top;spacingLeft=4;spacingRight=4;overflow=hidden;rotatable=0;points=[[0,0.5],[1,0.5]];portConstraint=eastwest;whiteSpace=wrap;html=1;" vertex="1" parent="dICW7F_Z_B3EryI-zm27-9">
          <mxGeometry y="60" width="190" height="40" as="geometry" />
        </mxCell>
        <mxCell id="ACSiwsO84_Lg0nSGpXH7-1" value="Extends" style="endArrow=block;endSize=16;endFill=0;html=1;rounded=0;entryX=1;entryY=0;entryDx=0;entryDy=0;" edge="1" parent="1" source="1j_1-GWrCnCKH1_u50-d-6">
          <mxGeometry x="0.3335" width="160" relative="1" as="geometry">
            <mxPoint x="224.00000000000006" y="45" as="sourcePoint" />
            <mxPoint x="264" y="120" as="targetPoint" />
            <Array as="points">
              <mxPoint x="264" y="45" />
            </Array>
            <mxPoint as="offset" />
          </mxGeometry>
        </mxCell>
        <mxCell id="ACSiwsO84_Lg0nSGpXH7-3" value="" style="endArrow=block;dashed=1;endFill=0;endSize=12;html=1;rounded=0;entryX=0;entryY=0;entryDx=0;entryDy=0;" edge="1" parent="1" target="dICW7F_Z_B3EryI-zm27-5">
          <mxGeometry width="160" relative="1" as="geometry">
            <mxPoint x="619.9999999999998" y="40" as="sourcePoint" />
            <mxPoint x="580" y="110" as="targetPoint" />
            <Array as="points">
              <mxPoint x="575" y="40" />
            </Array>
          </mxGeometry>
        </mxCell>
        <mxCell id="ACSiwsO84_Lg0nSGpXH7-6" value="Extends" style="endArrow=block;endSize=16;endFill=0;html=1;rounded=0;exitX=1;exitY=0;exitDx=0;exitDy=0;" edge="1" parent="1" source="KeaEY-KgxzFfwsy9Wn_8-5" target="KeaEY-KgxzFfwsy9Wn_8-1">
          <mxGeometry width="160" relative="1" as="geometry">
            <mxPoint x="188.8772101151316" y="890" as="sourcePoint" />
            <mxPoint x="270" y="880" as="targetPoint" />
            <Array as="points">
              <mxPoint x="250" y="890" />
            </Array>
          </mxGeometry>
        </mxCell>
        <mxCell id="ACSiwsO84_Lg0nSGpXH7-7" value="Extends" style="endArrow=block;endSize=16;endFill=0;html=1;rounded=0;exitX=0;exitY=0;exitDx=0;exitDy=0;" edge="1" parent="1" source="KeaEY-KgxzFfwsy9Wn_8-13" target="KeaEY-KgxzFfwsy9Wn_8-1">
          <mxGeometry width="160" relative="1" as="geometry">
            <mxPoint x="610" y="1000" as="sourcePoint" />
            <mxPoint x="670" y="890" as="targetPoint" />
            <Array as="points">
              <mxPoint x="600" y="890" />
            </Array>
          </mxGeometry>
        </mxCell>
        <mxCell id="ACSiwsO84_Lg0nSGpXH7-8" value="Extends" style="endArrow=block;endSize=16;endFill=0;html=1;rounded=0;" edge="1" parent="1" source="KeaEY-KgxzFfwsy9Wn_8-9" target="KeaEY-KgxzFfwsy9Wn_8-1">
          <mxGeometry width="160" relative="1" as="geometry">
            <mxPoint x="409.63" y="1040" as="sourcePoint" />
            <mxPoint x="409.63" y="960" as="targetPoint" />
            <Array as="points" />
          </mxGeometry>
        </mxCell>
        <mxCell id="ACSiwsO84_Lg0nSGpXH7-9" value="" style="endArrow=diamondThin;endFill=1;endSize=24;html=1;rounded=0;exitX=1;exitY=0;exitDx=0;exitDy=0;" edge="1" parent="1" source="asdCnAw3iJqueyx5lAn3-13" target="asdCnAw3iJqueyx5lAn3-9">
          <mxGeometry width="160" relative="1" as="geometry">
            <mxPoint x="150" y="420" as="sourcePoint" />
            <mxPoint x="310" y="430" as="targetPoint" />
            <Array as="points">
              <mxPoint x="280" y="420" />
            </Array>
          </mxGeometry>
        </mxCell>
        <mxCell id="tAX5UrBI5p6ADXMwQbip-12" value="&lt;strong data-end=&quot;1933&quot; data-start=&quot;1922&quot;&gt;1..1&lt;/strong&gt;" style="edgeLabel;html=1;align=center;verticalAlign=middle;resizable=0;points=[];" vertex="1" connectable="0" parent="ACSiwsO84_Lg0nSGpXH7-9">
          <mxGeometry x="0.6419" y="1" relative="1" as="geometry">
            <mxPoint x="-13" y="-9" as="offset" />
          </mxGeometry>
        </mxCell>
        <mxCell id="tAX5UrBI5p6ADXMwQbip-13" value="&lt;strong data-end=&quot;1933&quot; data-start=&quot;1922&quot;&gt;1..1&lt;/strong&gt;" style="edgeLabel;html=1;align=center;verticalAlign=middle;resizable=0;points=[];" vertex="1" connectable="0" parent="ACSiwsO84_Lg0nSGpXH7-9">
          <mxGeometry x="-0.7879" relative="1" as="geometry">
            <mxPoint x="-20" y="-4" as="offset" />
          </mxGeometry>
        </mxCell>
        <mxCell id="ACSiwsO84_Lg0nSGpXH7-10" value="" style="endArrow=diamondThin;endFill=1;endSize=24;html=1;rounded=0;" edge="1" parent="1" target="asdCnAw3iJqueyx5lAn3-13">
          <mxGeometry width="160" relative="1" as="geometry">
            <mxPoint x="310" y="850" as="sourcePoint" />
            <mxPoint x="170" y="710" as="targetPoint" />
            <Array as="points">
              <mxPoint x="170" y="850" />
            </Array>
          </mxGeometry>
        </mxCell>
        <mxCell id="tAX5UrBI5p6ADXMwQbip-18" value="&lt;strong data-end=&quot;1933&quot; data-start=&quot;1922&quot;&gt;1..1&lt;/strong&gt;" style="edgeLabel;html=1;align=center;verticalAlign=middle;resizable=0;points=[];" vertex="1" connectable="0" parent="ACSiwsO84_Lg0nSGpXH7-10">
          <mxGeometry x="0.9012" y="5" relative="1" as="geometry">
            <mxPoint x="-15" as="offset" />
          </mxGeometry>
        </mxCell>
        <mxCell id="tAX5UrBI5p6ADXMwQbip-19" value="&lt;strong data-end=&quot;1933&quot; data-start=&quot;1922&quot;&gt;1..*&lt;/strong&gt;" style="edgeLabel;html=1;align=center;verticalAlign=middle;resizable=0;points=[];" vertex="1" connectable="0" parent="ACSiwsO84_Lg0nSGpXH7-10">
          <mxGeometry x="-0.8803" y="2" relative="1" as="geometry">
            <mxPoint y="-12" as="offset" />
          </mxGeometry>
        </mxCell>
        <mxCell id="ACSiwsO84_Lg0nSGpXH7-11" value="" style="endArrow=diamondThin;endFill=0;endSize=24;html=1;rounded=0;" edge="1" parent="1" source="1j_1-GWrCnCKH1_u50-d-1" target="dICW7F_Z_B3EryI-zm27-1">
          <mxGeometry width="160" relative="1" as="geometry">
            <mxPoint x="250" y="130" as="sourcePoint" />
            <mxPoint x="390" y="170" as="targetPoint" />
            <Array as="points">
              <mxPoint x="390" y="130" />
            </Array>
          </mxGeometry>
        </mxCell>
        <mxCell id="tAX5UrBI5p6ADXMwQbip-1" value="&lt;strong data-end=&quot;1933&quot; data-start=&quot;1922&quot;&gt;1..1&lt;/strong&gt;" style="edgeLabel;html=1;align=center;verticalAlign=middle;resizable=0;points=[];" vertex="1" connectable="0" parent="ACSiwsO84_Lg0nSGpXH7-11">
          <mxGeometry x="-0.8556" relative="1" as="geometry">
            <mxPoint x="9" y="7" as="offset" />
          </mxGeometry>
        </mxCell>
        <mxCell id="tAX5UrBI5p6ADXMwQbip-2" value="&lt;strong data-end=&quot;1933&quot; data-start=&quot;1922&quot;&gt;1..1&lt;/strong&gt;" style="edgeLabel;html=1;align=center;verticalAlign=middle;resizable=0;points=[];" vertex="1" connectable="0" parent="ACSiwsO84_Lg0nSGpXH7-11">
          <mxGeometry x="0.6141" y="-1" relative="1" as="geometry">
            <mxPoint x="-22" y="10" as="offset" />
          </mxGeometry>
        </mxCell>
        <mxCell id="ACSiwsO84_Lg0nSGpXH7-13" value="" style="endArrow=diamondThin;endFill=0;endSize=24;html=1;rounded=0;" edge="1" parent="1" source="dICW7F_Z_B3EryI-zm27-5" target="dICW7F_Z_B3EryI-zm27-1">
          <mxGeometry width="160" relative="1" as="geometry">
            <mxPoint x="611" y="152.01171875" as="sourcePoint" />
            <mxPoint x="450" y="170" as="targetPoint" />
            <Array as="points">
              <mxPoint x="450" y="130" />
            </Array>
          </mxGeometry>
        </mxCell>
        <mxCell id="tAX5UrBI5p6ADXMwQbip-3" value="&lt;strong data-end=&quot;1933&quot; data-start=&quot;1922&quot;&gt;1..1&lt;/strong&gt;" style="edgeLabel;html=1;align=center;verticalAlign=middle;resizable=0;points=[];" vertex="1" connectable="0" parent="ACSiwsO84_Lg0nSGpXH7-13">
          <mxGeometry x="0.6253" y="1" relative="1" as="geometry">
            <mxPoint x="22" y="10" as="offset" />
          </mxGeometry>
        </mxCell>
        <mxCell id="tAX5UrBI5p6ADXMwQbip-4" value="&lt;strong data-end=&quot;1933&quot; data-start=&quot;1922&quot;&gt;1..1&lt;/strong&gt;" style="edgeLabel;html=1;align=center;verticalAlign=middle;resizable=0;points=[];" vertex="1" connectable="0" parent="ACSiwsO84_Lg0nSGpXH7-13">
          <mxGeometry x="-0.7414" y="2" relative="1" as="geometry">
            <mxPoint y="12" as="offset" />
          </mxGeometry>
        </mxCell>
        <mxCell id="ACSiwsO84_Lg0nSGpXH7-14" value="" style="endArrow=diamondThin;endFill=0;endSize=24;html=1;rounded=0;" edge="1" parent="1" source="asdCnAw3iJqueyx5lAn3-9" target="asdCnAw3iJqueyx5lAn3-5">
          <mxGeometry width="160" relative="1" as="geometry">
            <mxPoint x="370" y="290" as="sourcePoint" />
            <mxPoint x="530" y="290" as="targetPoint" />
            <Array as="points">
              <mxPoint x="250" y="370" />
            </Array>
          </mxGeometry>
        </mxCell>
        <mxCell id="tAX5UrBI5p6ADXMwQbip-9" value="&lt;strong data-end=&quot;1933&quot; data-start=&quot;1922&quot;&gt;1..1&lt;/strong&gt;" style="edgeLabel;html=1;align=center;verticalAlign=middle;resizable=0;points=[];" vertex="1" connectable="0" parent="ACSiwsO84_Lg0nSGpXH7-14">
          <mxGeometry x="0.7274" y="-1" relative="1" as="geometry">
            <mxPoint y="-16" as="offset" />
          </mxGeometry>
        </mxCell>
        <mxCell id="tAX5UrBI5p6ADXMwQbip-11" value="&lt;strong data-end=&quot;1933&quot; data-start=&quot;1922&quot;&gt;1..1&lt;/strong&gt;" style="edgeLabel;html=1;align=center;verticalAlign=middle;resizable=0;points=[];" vertex="1" connectable="0" parent="ACSiwsO84_Lg0nSGpXH7-14">
          <mxGeometry x="-0.7301" y="-2" relative="1" as="geometry">
            <mxPoint y="-15" as="offset" />
          </mxGeometry>
        </mxCell>
        <mxCell id="ACSiwsO84_Lg0nSGpXH7-16" value="" style="endArrow=diamondThin;endFill=0;endSize=24;html=1;rounded=0;" edge="1" parent="1" source="YknYfnQOU2gpnMPJucMA-1">
          <mxGeometry width="160" relative="1" as="geometry">
            <mxPoint x="595" y="313.59649122807025" as="sourcePoint" />
            <mxPoint x="190" y="336.42857142857144" as="targetPoint" />
            <Array as="points">
              <mxPoint x="390" y="320" />
            </Array>
          </mxGeometry>
        </mxCell>
        <mxCell id="tAX5UrBI5p6ADXMwQbip-7" value="&lt;strong data-end=&quot;1933&quot; data-start=&quot;1922&quot;&gt;1..1&lt;/strong&gt;" style="edgeLabel;html=1;align=center;verticalAlign=middle;resizable=0;points=[];" vertex="1" connectable="0" parent="ACSiwsO84_Lg0nSGpXH7-16">
          <mxGeometry x="0.9047" y="-2" relative="1" as="geometry">
            <mxPoint y="-13" as="offset" />
          </mxGeometry>
        </mxCell>
        <mxCell id="tAX5UrBI5p6ADXMwQbip-8" value="&lt;strong data-end=&quot;1933&quot; data-start=&quot;1922&quot;&gt;1..1&lt;/strong&gt;" style="edgeLabel;html=1;align=center;verticalAlign=middle;resizable=0;points=[];" vertex="1" connectable="0" parent="ACSiwsO84_Lg0nSGpXH7-16">
          <mxGeometry x="-0.8963" y="2" relative="1" as="geometry">
            <mxPoint y="-12" as="offset" />
          </mxGeometry>
        </mxCell>
        <mxCell id="ACSiwsO84_Lg0nSGpXH7-17" value="" style="endArrow=diamondThin;endFill=0;endSize=24;html=1;rounded=0;" edge="1" parent="1" source="YknYfnQOU2gpnMPJucMA-9" target="asdCnAw3iJqueyx5lAn3-9">
          <mxGeometry width="160" relative="1" as="geometry">
            <mxPoint x="290" y="530" as="sourcePoint" />
            <mxPoint x="450" y="530" as="targetPoint" />
          </mxGeometry>
        </mxCell>
        <mxCell id="tAX5UrBI5p6ADXMwQbip-14" value="&lt;strong data-end=&quot;1933&quot; data-start=&quot;1922&quot;&gt;1..1&lt;/strong&gt;" style="edgeLabel;html=1;align=center;verticalAlign=middle;resizable=0;points=[];" vertex="1" connectable="0" parent="ACSiwsO84_Lg0nSGpXH7-17">
          <mxGeometry x="0.5785" y="-1" relative="1" as="geometry">
            <mxPoint x="25" as="offset" />
          </mxGeometry>
        </mxCell>
        <mxCell id="tAX5UrBI5p6ADXMwQbip-15" value="&lt;strong data-end=&quot;1933&quot; data-start=&quot;1922&quot;&gt;1..1&lt;/strong&gt;" style="edgeLabel;html=1;align=center;verticalAlign=middle;resizable=0;points=[];" vertex="1" connectable="0" parent="ACSiwsO84_Lg0nSGpXH7-17">
          <mxGeometry x="-0.5197" y="1" relative="1" as="geometry">
            <mxPoint x="15" as="offset" />
          </mxGeometry>
        </mxCell>
        <mxCell id="ACSiwsO84_Lg0nSGpXH7-18" value="" style="endArrow=diamondThin;endFill=0;endSize=24;html=1;rounded=0;" edge="1" parent="1" source="YknYfnQOU2gpnMPJucMA-5" target="asdCnAw3iJqueyx5lAn3-12">
          <mxGeometry width="160" relative="1" as="geometry">
            <mxPoint x="685" y="594" as="sourcePoint" />
            <mxPoint x="500" y="460" as="targetPoint" />
            <Array as="points">
              <mxPoint x="685" y="454" />
            </Array>
          </mxGeometry>
        </mxCell>
        <mxCell id="tAX5UrBI5p6ADXMwQbip-16" value="&lt;strong data-end=&quot;1933&quot; data-start=&quot;1922&quot;&gt;1..1&lt;/strong&gt;" style="edgeLabel;html=1;align=center;verticalAlign=middle;resizable=0;points=[];" vertex="1" connectable="0" parent="ACSiwsO84_Lg0nSGpXH7-18">
          <mxGeometry x="0.8759" y="-3" relative="1" as="geometry">
            <mxPoint x="22" y="-11" as="offset" />
          </mxGeometry>
        </mxCell>
        <mxCell id="tAX5UrBI5p6ADXMwQbip-17" value="&lt;strong data-end=&quot;1933&quot; data-start=&quot;1922&quot;&gt;1..1&lt;/strong&gt;" style="edgeLabel;html=1;align=center;verticalAlign=middle;resizable=0;points=[];" vertex="1" connectable="0" parent="ACSiwsO84_Lg0nSGpXH7-18">
          <mxGeometry x="-0.9037" y="-1" relative="1" as="geometry">
            <mxPoint x="14" as="offset" />
          </mxGeometry>
        </mxCell>
        <mxCell id="ACSiwsO84_Lg0nSGpXH7-19" value="" style="endArrow=open;endFill=1;endSize=12;html=1;rounded=0;exitX=0.947;exitY=0.99;exitDx=0;exitDy=0;exitPerimeter=0;" edge="1" parent="1" source="dICW7F_Z_B3EryI-zm27-12" target="asdCnAw3iJqueyx5lAn3-10">
          <mxGeometry width="160" relative="1" as="geometry">
            <mxPoint x="790" y="240" as="sourcePoint" />
            <mxPoint x="800" y="720" as="targetPoint" />
            <Array as="points">
              <mxPoint x="800" y="393" />
            </Array>
          </mxGeometry>
        </mxCell>
        <mxCell id="tAX5UrBI5p6ADXMwQbip-5" value="&lt;strong data-end=&quot;1933&quot; data-start=&quot;1922&quot;&gt;1..1&lt;/strong&gt;" style="edgeLabel;html=1;align=center;verticalAlign=middle;resizable=0;points=[];" vertex="1" connectable="0" parent="ACSiwsO84_Lg0nSGpXH7-19">
          <mxGeometry x="-0.9212" y="1" relative="1" as="geometry">
            <mxPoint x="9" y="-2" as="offset" />
          </mxGeometry>
        </mxCell>
        <mxCell id="tAX5UrBI5p6ADXMwQbip-6" value="&lt;strong data-end=&quot;1933&quot; data-start=&quot;1922&quot;&gt;1..1&lt;/strong&gt;" style="edgeLabel;html=1;align=center;verticalAlign=middle;resizable=0;points=[];" vertex="1" connectable="0" parent="ACSiwsO84_Lg0nSGpXH7-19">
          <mxGeometry x="0.9327" y="-1" relative="1" as="geometry">
            <mxPoint x="10" y="18" as="offset" />
          </mxGeometry>
        </mxCell>
        <mxCell id="ACSiwsO84_Lg0nSGpXH7-20" value="" style="endArrow=diamondThin;endFill=0;endSize=24;html=1;rounded=0;" edge="1" parent="1" source="YknYfnQOU2gpnMPJucMA-13" target="asdCnAw3iJqueyx5lAn3-13">
          <mxGeometry width="160" relative="1" as="geometry">
            <mxPoint x="304" y="730" as="sourcePoint" />
            <mxPoint x="210" y="680" as="targetPoint" />
            <Array as="points">
              <mxPoint x="220" y="730" />
            </Array>
          </mxGeometry>
        </mxCell>
        <mxCell id="tAX5UrBI5p6ADXMwQbip-20" value="&lt;strong data-end=&quot;1933&quot; data-start=&quot;1922&quot;&gt;1..1&lt;/strong&gt;" style="edgeLabel;html=1;align=center;verticalAlign=middle;resizable=0;points=[];" vertex="1" connectable="0" parent="ACSiwsO84_Lg0nSGpXH7-20">
          <mxGeometry x="0.6637" y="1" relative="1" as="geometry">
            <mxPoint x="25" as="offset" />
          </mxGeometry>
        </mxCell>
        <mxCell id="tAX5UrBI5p6ADXMwQbip-22" value="&lt;strong data-end=&quot;1933&quot; data-start=&quot;1922&quot;&gt;1..1&lt;/strong&gt;" style="edgeLabel;html=1;align=center;verticalAlign=middle;resizable=0;points=[];" vertex="1" connectable="0" parent="ACSiwsO84_Lg0nSGpXH7-20">
          <mxGeometry x="-0.6321" relative="1" as="geometry">
            <mxPoint y="-10" as="offset" />
          </mxGeometry>
        </mxCell>
      </root>
    </mxGraphModel>
  </diagram>
</mxfile>
